<svg width="226" height="108" viewBox="0 0 226 108" fill="none" xmlns="http://www.w3.org/2000/svg">
<path d="M43.0799 33.1969C43.287 14.6964 57.8237 -0.150859 75.5484 0.0346325C93.2731 0.220124 107.474 15.3681 107.267 33.8687C107.059 52.3692 92.5228 67.2165 74.7981 67.031C57.0734 66.8455 42.8727 51.6975 43.0799 33.1969Z" fill="#41AD78"/>
<path d="M104.341 67.4164L45.7552 67.6508L43.0648 30.1612L107.255 29.9044L104.341 67.4164Z" fill="#41AD78"/>
<path d="M66.5307 17.8993L63.8561 14.9959C59.4819 18.7884 56.6308 24.6367 56.4381 31.2078L60.137 31.1616C60.344 25.7208 62.8002 20.9221 66.5307 17.8993ZM91.4543 30.7697L95.1532 30.7234C94.7942 24.1592 91.7961 18.3841 87.3127 14.7024L84.706 17.6718C88.5328 20.6002 91.1096 25.3359 91.4543 30.7697ZM87.8265 31.8454C87.7467 25.5411 83.7438 20.3125 78.4158 18.9851L78.3981 17.5859C78.3765 15.884 77.1234 14.5218 75.5878 14.541C74.0521 14.5602 72.8338 15.9534 72.8554 17.6553L72.8731 19.0544C67.5803 20.5147 63.7111 25.8435 63.7908 32.1462L63.9337 43.4381L60.2884 47.5869L60.3143 49.64L91.7446 49.2468L91.7186 47.1937L87.9694 43.1374L87.8265 31.8454ZM76.1074 55.6062C76.3672 55.603 76.6056 55.5821 76.8484 55.5145C78.042 55.2344 79.032 54.2974 79.4761 53.0555C79.6554 52.5659 79.7616 52.0289 79.7543 51.452L72.3565 51.5446C72.3851 53.8037 74.0733 55.6317 76.1074 55.6062Z" fill="#247C51"/>
<path d="M66.463 18.9004L63.7884 15.997C59.4141 19.7895 56.5631 25.6378 56.3703 32.209L60.0692 32.1627C60.2763 26.7219 62.7324 21.9232 66.463 18.9004ZM91.3866 31.7708L95.0855 31.7245C94.7265 25.1603 91.7283 19.3852 87.245 15.7035L84.6383 18.6729C88.4651 21.6013 91.0419 26.337 91.3866 31.7708ZM87.7587 32.8465C87.6789 26.5422 83.6761 21.3136 78.348 19.9862L78.3303 18.587C78.3088 16.8851 77.0557 15.5229 75.52 15.5421C73.9843 15.5613 72.7661 16.9545 72.7876 18.6564L72.8053 20.0555C67.5126 21.5158 63.6433 26.8446 63.7231 33.1473L63.866 44.4392L60.2206 48.588L60.2466 50.6411L91.6768 50.2479L91.6508 48.1948L87.9016 44.1385L87.7587 32.8465ZM76.0397 56.6073C76.2994 56.6041 76.5379 56.5832 76.7807 56.5156C77.9742 56.2355 78.9643 55.2985 79.4084 54.0566C79.5877 53.567 79.6938 53.03 79.6865 52.4531L72.2888 52.5457C72.3174 54.8048 74.0056 56.6328 76.0397 56.6073Z" fill="white"/>
<path d="M66.7972 68.358C69.8835 85.4822 57.538 102.01 39.2229 105.273C20.9078 108.537 3.55852 97.3008 0.47227 80.1766C-2.61398 63.0524 9.73146 46.5249 28.0466 43.2613C46.3617 39.9976 63.711 51.2338 66.7972 68.358Z" fill="#1DACEF"/>
<path d="M67.4014 72.8772L61.1644 107.967L24.4145 98.8471L67.4014 72.8772Z" fill="#1DACEF"/>
<path d="M32.9377 60.9944C32.9377 60.1902 33.3928 61.3864 33.9541 61.3864C34.5154 61.3864 34.9705 60.1902 34.9705 60.9944V90.1173C34.9705 90.9215 34.5154 91.5735 33.9541 91.5735C33.3928 91.5735 32.9377 90.9215 32.9377 90.1173V60.9944Z" fill="#1E98D1"/>
<path d="M30.1347 92.6021C29.0807 92.6021 28.2262 91.971 28.2262 91.1925C28.2262 90.4141 29.0807 89.783 30.1347 89.783H37.769C38.8231 89.783 39.6776 90.4141 39.6776 91.1925C39.6776 91.971 38.8231 92.6021 37.769 92.6021H30.1347Z" fill="#1E98D1"/>
<path d="M11.093 77.5332C11.2469 76.333 9.99131 76.0228 10.9274 76.2201C11.8635 76.4174 12.4976 77.5503 12.3438 78.7505C12.3457 78.7357 12.3457 78.7979 12.3542 79.0099L12.3549 79.0263C12.3631 79.2317 12.3665 79.3462 12.3665 79.4945C12.3665 81.9271 14.4844 86.2592 17.9199 86.2592C22.5004 86.2592 23.5307 82.0573 23.5307 79.6246C23.5307 79.4905 23.5338 79.3714 23.5404 79.1712C23.5429 79.0942 23.5429 79.0942 23.5448 79.0263C23.5482 78.8961 23.5472 78.8279 23.5494 78.8471C23.41 77.6439 24.0576 76.5237 24.996 76.3449C25.9344 76.1662 24.6539 76.3637 24.7933 77.5668C24.8297 77.8809 24.8341 78.1622 24.8241 78.5415C24.8214 78.6361 24.8214 78.6361 24.8187 78.7202C24.8131 78.8992 24.812 78.9421 24.812 78.9917C24.812 83.857 21.7358 87.8012 17.9411 87.8012C14.1464 87.8012 11.0702 83.857 11.0702 78.9917C11.0702 78.9422 11.0685 78.8828 11.0632 78.7505L11.0625 78.7346C11.041 78.202 11.041 77.9384 11.093 77.5332Z" fill="#1E98D1"/>
<path d="M41.5843 77.5131C41.7381 76.3128 40.4826 76.0026 41.4187 76.1999C42.3548 76.3972 42.9889 77.5301 42.835 78.7303C42.8369 78.7156 42.8369 78.7777 42.8455 78.9897L42.8461 79.0061C42.8544 79.2116 42.8578 79.326 42.8578 79.4743C42.8578 81.907 44.9757 86.239 48.4111 86.239C52.9917 86.239 54.022 82.0371 54.022 79.6044C54.022 79.4704 54.025 79.3512 54.0317 79.1511C54.0342 79.0741 54.0342 79.0741 54.0361 79.0061C54.0395 78.876 54.0385 78.8078 54.0407 78.8269C53.9012 77.6238 54.5489 76.5035 55.4873 76.3248C56.4256 76.146 55.1452 76.3435 55.2846 77.5466C55.321 77.8607 55.3253 78.142 55.3154 78.5213C55.3127 78.6159 55.3127 78.6159 55.31 78.7001C55.3043 78.879 55.3032 78.9219 55.3032 78.9715C55.3032 83.8369 52.227 87.781 48.4324 87.781C44.6377 87.781 41.5615 83.8369 41.5615 78.9715C41.5615 78.9221 41.5598 78.8626 41.5544 78.7303L41.5538 78.7144C41.5323 78.1818 41.5323 77.9183 41.5843 77.5131Z" fill="#1E98D1"/>
<path d="M12.2983 77.802C12.7967 78.653 23.0514 78.7163 23.5415 77.802C24.0316 76.8878 19.2167 63.002 17.9199 63.002C16.6231 63.002 11.7998 76.9511 12.2983 77.802ZM19.7248 62.8449L24.6307 76.8572C25.1558 78.2856 24.0272 79.2306 22.774 79.2306C22.774 79.2306 19.7565 79.2306 17.6921 79.2306C15.6277 79.2306 13.6266 79.2306 13.6266 79.2306C12.3734 79.2306 10.6839 78.2856 11.2091 76.8572L16.3607 62.8449C16.9746 61.1751 19.1109 61.1751 19.7248 62.8449Z" fill="#1E98D1"/>
<path d="M43.2345 77.8144C43.7169 78.658 53.6417 78.7208 54.1161 77.8144C54.5905 76.908 49.9304 63.1423 48.6753 63.1423C47.4202 63.1423 42.752 76.9708 43.2345 77.8144ZM50.4222 62.9865L55.1702 76.8777C55.6785 78.2938 54.5862 79.2306 53.3733 79.2306C53.3733 79.2306 50.4529 79.2306 48.4548 79.2306C46.4568 79.2306 44.5201 79.2306 44.5201 79.2306C43.3072 79.2306 41.672 78.2938 42.1803 76.8777L47.1663 62.9864C47.7604 61.3311 49.8281 61.3311 50.4222 62.9865Z" fill="#1E98D1"/>
<path d="M33.7084 61.9866C33.7084 61.2048 34.1587 62.3678 34.7141 62.3678C35.2696 62.3678 35.7198 61.2048 35.7198 61.9866V90.3006C35.7198 91.0825 35.2696 91.7163 34.7141 91.7163C34.1587 91.7163 33.7084 91.0825 33.7084 90.3006V61.9866Z" fill="#FFF7F7"/>
<path d="M30.9349 92.7163C29.8919 92.7163 29.0464 92.1028 29.0464 91.346C29.0464 90.5891 29.8919 89.9756 30.9349 89.9756H38.489C39.532 89.9756 40.3775 90.5891 40.3775 91.346C40.3775 92.1028 39.532 92.7163 38.489 92.7163H30.9349Z" fill="#FFF7F7"/>
<path d="M12.0933 78.0661C12.2455 76.8992 11.0032 76.5976 11.9294 76.7894C12.8557 76.9812 13.4832 78.0827 13.3309 79.2496C13.3328 79.2352 13.3328 79.2956 13.3412 79.5017L13.3419 79.5177C13.3501 79.7174 13.3534 79.8287 13.3534 79.9729C13.3534 82.338 15.4491 86.5497 18.8484 86.5497C23.3808 86.5497 24.4003 82.4645 24.4003 80.0993C24.4003 79.969 24.4033 79.8532 24.4099 79.6586C24.4124 79.5837 24.4124 79.5837 24.4142 79.5177C24.4176 79.3911 24.4166 79.3248 24.4188 79.3434C24.2808 78.1737 24.9217 77.0846 25.8502 76.9108C26.7787 76.737 25.5117 76.929 25.6496 78.0987C25.6856 78.4041 25.6899 78.6776 25.6801 79.0463C25.6775 79.1383 25.6775 79.1383 25.6748 79.2201C25.6692 79.3941 25.6681 79.4358 25.6681 79.484C25.6681 84.2142 22.6242 88.0488 18.8694 88.0488C15.1146 88.0488 12.0708 84.2142 12.0708 79.484C12.0708 79.436 12.069 79.3782 12.0638 79.2496L12.0631 79.2341C12.0419 78.7163 12.0419 78.46 12.0933 78.0661Z" fill="#FFF7F7"/>
<path d="M42.2641 78.0465C42.4164 76.8796 41.174 76.578 42.1003 76.7698C43.0265 76.9616 43.654 78.0631 43.5017 79.23C43.5036 79.2156 43.5036 79.276 43.5121 79.4821L43.5127 79.498C43.5209 79.6978 43.5242 79.8091 43.5242 79.9532C43.5242 82.3183 45.6199 86.5301 49.0192 86.5301C53.5517 86.5301 54.5712 82.4449 54.5712 80.0797C54.5712 79.9494 54.5742 79.8336 54.5807 79.639C54.5832 79.5641 54.5832 79.5641 54.5851 79.498C54.5885 79.3715 54.5874 79.3052 54.5896 79.3238C54.4517 78.1541 55.0925 77.065 56.021 76.8912C56.9495 76.7174 55.6825 76.9094 55.8205 78.0791C55.8565 78.3845 55.8608 78.658 55.8509 79.0267C55.8483 79.1187 55.8483 79.1187 55.8456 79.2005C55.84 79.3745 55.8389 79.4162 55.8389 79.4644C55.8389 84.1946 52.7951 88.0292 49.0403 88.0292C45.2855 88.0292 42.2416 84.1946 42.2416 79.4644C42.2416 79.4164 42.2399 79.3585 42.2346 79.23L42.234 79.2144C42.2127 78.6966 42.2127 78.4404 42.2641 78.0465Z" fill="#FFF7F7"/>
<path d="M13.2859 78.3274C13.7791 79.1547 23.926 79.2163 24.4109 78.3274C24.8959 77.4386 20.1316 63.9386 18.8484 63.9386C17.5652 63.9386 12.7926 77.5002 13.2859 78.3274ZM20.6344 63.7858L25.4887 77.4089C26.0083 78.7976 24.8915 79.7163 23.6515 79.7163C23.6515 79.7163 20.6658 79.7163 18.623 79.7163C16.5803 79.7163 14.6002 79.7163 14.6002 79.7163C13.3602 79.7163 11.6885 78.7976 12.2081 77.4089L17.3056 63.7858C17.9131 62.1623 20.027 62.1623 20.6344 63.7858Z" fill="#FFF7F7"/>
<path d="M43.897 78.3394C44.3743 79.1596 54.1949 79.2207 54.6643 78.3394C55.1336 77.4582 50.5225 64.0749 49.2806 64.0749C48.0387 64.0749 43.4196 77.5193 43.897 78.3394ZM51.0092 63.9234L55.7073 77.4288C56.2103 78.8055 55.1294 79.7163 53.9292 79.7163C53.9292 79.7163 51.0395 79.7163 49.0625 79.7163C47.0854 79.7163 45.1691 79.7163 45.1691 79.7163C43.9689 79.7163 42.351 78.8055 42.8539 77.4288L47.7875 63.9234C48.3754 62.314 50.4213 62.314 51.0092 63.9234Z" fill="#FFF7F7"/>
<path fill-rule="evenodd" clip-rule="evenodd" d="M50.8053 65.7163H17.6173V64.7163H50.8053V65.7163Z" fill="white"/>
<path d="M109.238 65.7163V48.2618H119.704V50.1368H111.351V56.0345H118.92V57.9095H111.351V65.7163H109.238Z" fill="black"/>
<path d="M127.408 65.9891C126.226 65.9891 125.189 65.7078 124.297 65.1453C123.411 64.5828 122.718 63.7959 122.218 62.7845C121.724 61.7732 121.476 60.5913 121.476 59.2391C121.476 57.8754 121.724 56.6851 122.218 55.668C122.718 54.651 123.411 53.8612 124.297 53.2987C125.189 52.7362 126.226 52.455 127.408 52.455C128.59 52.455 129.624 52.7362 130.511 53.2987C131.403 53.8612 132.096 54.651 132.59 55.668C133.09 56.6851 133.34 57.8754 133.34 59.2391C133.34 60.5913 133.09 61.7732 132.59 62.7845C132.096 63.7959 131.403 64.5828 130.511 65.1453C129.624 65.7078 128.59 65.9891 127.408 65.9891ZM127.408 64.1823C128.306 64.1823 129.045 63.9521 129.624 63.4919C130.204 63.0317 130.633 62.4266 130.911 61.6766C131.189 60.9266 131.329 60.1141 131.329 59.2391C131.329 58.3641 131.189 57.5487 130.911 56.793C130.633 56.0374 130.204 55.4266 129.624 54.9607C129.045 54.4948 128.306 54.2618 127.408 54.2618C126.511 54.2618 125.772 54.4948 125.192 54.9607C124.613 55.4266 124.184 56.0374 123.905 56.793C123.627 57.5487 123.488 58.3641 123.488 59.2391C123.488 60.1141 123.627 60.9266 123.905 61.6766C124.184 62.4266 124.613 63.0317 125.192 63.4919C125.772 63.9521 126.511 64.1823 127.408 64.1823Z" fill="black"/>
<path d="M136.41 65.7163V52.6254H138.354V54.6027H138.49C138.729 53.955 139.16 53.4294 139.785 53.026C140.41 52.6226 141.115 52.4209 141.899 52.4209C142.047 52.4209 142.231 52.4237 142.453 52.4294C142.675 52.4351 142.842 52.4436 142.956 52.455V54.5004C142.888 54.4834 142.731 54.4578 142.487 54.4237C142.248 54.384 141.996 54.3641 141.729 54.3641C141.092 54.3641 140.524 54.4976 140.024 54.7646C139.53 55.026 139.138 55.3896 138.848 55.8555C138.564 56.3158 138.422 56.8413 138.422 57.4323V65.7163H136.41Z" fill="black"/>
<path d="M150.26 65.9891C149.078 65.9891 148.041 65.7078 147.149 65.1453C146.263 64.5828 145.569 63.7959 145.069 62.7845C144.575 61.7732 144.328 60.5913 144.328 59.2391C144.328 57.8754 144.575 56.6851 145.069 55.668C145.569 54.651 146.263 53.8612 147.149 53.2987C148.041 52.7362 149.078 52.455 150.26 52.455C151.442 52.455 152.476 52.7362 153.362 53.2987C154.254 53.8612 154.947 54.651 155.442 55.668C155.942 56.6851 156.192 57.8754 156.192 59.2391C156.192 60.5913 155.942 61.7732 155.442 62.7845C154.947 63.7959 154.254 64.5828 153.362 65.1453C152.476 65.7078 151.442 65.9891 150.26 65.9891ZM150.26 64.1823C151.158 64.1823 151.896 63.9521 152.476 63.4919C153.055 63.0317 153.484 62.4266 153.763 61.6766C154.041 60.9266 154.18 60.1141 154.18 59.2391C154.18 58.3641 154.041 57.5487 153.763 56.793C153.484 56.0374 153.055 55.4266 152.476 54.9607C151.896 54.4948 151.158 54.2618 150.26 54.2618C149.362 54.2618 148.623 54.4948 148.044 54.9607C147.464 55.4266 147.035 56.0374 146.757 56.793C146.479 57.5487 146.339 58.3641 146.339 59.2391C146.339 60.1141 146.479 60.9266 146.757 61.6766C147.035 62.4266 147.464 63.0317 148.044 63.4919C148.623 63.9521 149.362 64.1823 150.26 64.1823Z" fill="black"/>
<path d="M82.35 78.7163H80.5887C80.4845 78.2097 80.3022 77.7646 80.0418 77.3811C79.7861 76.9976 79.4736 76.6756 79.1043 76.4152C78.7397 76.15 78.3349 75.9512 77.8898 75.8186C77.4447 75.686 76.9807 75.6198 76.4977 75.6198C75.6171 75.6198 74.8192 75.8423 74.1043 76.2874C73.3941 76.7324 72.8282 77.3882 72.4068 78.2547C71.9902 79.1212 71.7818 80.1841 71.7818 81.4436C71.7818 82.7031 71.9902 83.7661 72.4068 84.6325C72.8282 85.499 73.3941 86.1548 74.1043 86.5999C74.8192 87.0449 75.6171 87.2675 76.4977 87.2675C76.9807 87.2675 77.4447 87.2012 77.8898 87.0686C78.3349 86.936 78.7397 86.7395 79.1043 86.4791C79.4736 86.214 79.7861 85.8896 80.0418 85.5061C80.3022 85.1179 80.4845 84.6728 80.5887 84.1709H82.35C82.2174 84.9143 81.976 85.5795 81.6256 86.1666C81.2752 86.7537 80.8396 87.2533 80.3188 87.6652C79.7979 88.0724 79.2132 88.3825 78.5645 88.5956C77.9206 88.8087 77.2317 88.9152 76.4977 88.9152C75.2572 88.9152 74.154 88.6122 73.1881 88.0061C72.2222 87.4001 71.4622 86.5383 70.9083 85.4209C70.3543 84.3035 70.0773 82.9777 70.0773 81.4436C70.0773 79.9095 70.3543 78.5838 70.9083 77.4663C71.4622 76.3489 72.2222 75.4872 73.1881 74.8811C74.154 74.2751 75.2572 73.972 76.4977 73.972C77.2317 73.972 77.9206 74.0786 78.5645 74.2916C79.2132 74.5047 79.7979 74.8172 80.3188 75.2291C80.8396 75.6363 81.2752 76.1335 81.6256 76.7206C81.976 77.303 82.2174 77.9682 82.35 78.7163Z" fill="black"/>
<path d="M84.969 88.7163V77.8073H86.6451V88.7163H84.969ZM85.8213 75.9891C85.4945 75.9891 85.2128 75.8778 84.9761 75.6553C84.7441 75.4327 84.6281 75.1652 84.6281 74.8527C84.6281 74.5402 84.7441 74.2727 84.9761 74.0501C85.2128 73.8276 85.4945 73.7163 85.8213 73.7163C86.148 73.7163 86.4273 73.8276 86.6593 74.0501C86.8961 74.2727 87.0144 74.5402 87.0144 74.8527C87.0144 75.1652 86.8961 75.4327 86.6593 75.6553C86.4273 75.8778 86.148 75.9891 85.8213 75.9891Z" fill="black"/>
<path d="M96.5901 84.2561V77.8073H98.2662V88.7163H96.5901V86.8698H96.4764C96.2208 87.4237 95.823 87.8948 95.2833 88.2831C94.7435 88.6666 94.0617 88.8584 93.2378 88.8584C92.556 88.8584 91.9499 88.7092 91.4196 88.4109C90.8893 88.1079 90.4727 87.6534 90.1696 87.0473C89.8666 86.4365 89.7151 85.6671 89.7151 84.7391V77.8073H91.3912V84.6254C91.3912 85.4209 91.6137 86.0554 92.0588 86.5288C92.5086 87.0023 93.0815 87.2391 93.7776 87.2391C94.1942 87.2391 94.618 87.1325 95.0489 86.9195C95.4845 86.7064 95.8491 86.3797 96.1426 85.9394C96.4409 85.499 96.5901 84.9379 96.5901 84.2561Z" fill="black"/>
<path d="M105.455 88.9436C104.546 88.9436 103.744 88.714 103.048 88.2547C102.352 87.7907 101.807 87.1373 101.414 86.2945C101.021 85.4469 100.825 84.4455 100.825 83.2902C100.825 82.1444 101.021 81.1501 101.414 80.3073C101.807 79.4644 102.354 78.8134 103.055 78.3541C103.756 77.8948 104.565 77.6652 105.484 77.6652C106.194 77.6652 106.755 77.7836 107.167 78.0203C107.584 78.2523 107.901 78.5175 108.119 78.8158C108.341 79.1093 108.514 79.3508 108.637 79.5402H108.779V74.1709H110.455V88.7163H108.836V87.0402H108.637C108.514 87.2391 108.339 87.49 108.112 87.793C107.884 88.0913 107.56 88.3589 107.139 88.5956C106.717 88.8276 106.156 88.9436 105.455 88.9436ZM105.683 87.4379C106.355 87.4379 106.923 87.2627 107.387 86.9124C107.851 86.5572 108.204 86.0672 108.446 85.4422C108.687 84.8125 108.808 84.0857 108.808 83.2618C108.808 82.4474 108.689 81.7348 108.453 81.124C108.216 80.5085 107.866 80.0303 107.402 79.6894C106.937 79.3437 106.365 79.1709 105.683 79.1709C104.973 79.1709 104.381 79.3532 103.907 79.7178C103.438 80.0776 103.086 80.5677 102.849 81.1879C102.617 81.8035 102.501 82.4947 102.501 83.2618C102.501 84.0383 102.619 84.7438 102.856 85.3783C103.098 86.008 103.453 86.5099 103.921 86.8839C104.395 87.2533 104.982 87.4379 105.683 87.4379Z" fill="black"/>
<path d="M116.968 88.972C116.277 88.972 115.65 88.8418 115.086 88.5814C114.523 88.3162 114.075 87.9351 113.744 87.4379C113.412 86.936 113.247 86.33 113.247 85.6198C113.247 84.9948 113.37 84.4881 113.616 84.0999C113.862 83.7069 114.191 83.3991 114.603 83.1766C115.015 82.954 115.47 82.7883 115.967 82.6794C116.469 82.5658 116.973 82.4758 117.48 82.4095C118.143 82.3243 118.68 82.2604 119.092 82.2178C119.509 82.1704 119.812 82.0923 120.001 81.9834C120.195 81.8745 120.292 81.6851 120.292 81.4152V81.3584C120.292 80.6576 120.1 80.1131 119.717 79.7249C119.338 79.3366 118.763 79.1425 117.991 79.1425C117.191 79.1425 116.563 79.3177 116.109 79.668C115.654 80.0184 115.335 80.3925 115.15 80.7902L113.559 80.222C113.843 79.5591 114.222 79.043 114.696 78.6737C115.174 78.2997 115.695 78.0393 116.258 77.8925C116.826 77.741 117.385 77.6652 117.934 77.6652C118.285 77.6652 118.687 77.7078 119.142 77.793C119.601 77.8735 120.044 78.0416 120.47 78.2973C120.901 78.553 121.258 78.9389 121.542 79.455C121.826 79.9711 121.968 80.6624 121.968 81.5288V88.7163H120.292V87.2391H120.207C120.093 87.4758 119.904 87.7291 119.639 87.999C119.374 88.2689 119.021 88.4985 118.58 88.6879C118.14 88.8773 117.603 88.972 116.968 88.972ZM117.224 87.4663C117.887 87.4663 118.446 87.3361 118.9 87.0757C119.359 86.8153 119.705 86.4791 119.937 86.0672C120.174 85.6553 120.292 85.222 120.292 84.7675V83.2334C120.221 83.3186 120.065 83.3967 119.823 83.4678C119.587 83.534 119.312 83.5932 119 83.6453C118.692 83.6927 118.391 83.7353 118.098 83.7732C117.809 83.8063 117.574 83.8347 117.394 83.8584C116.959 83.9152 116.552 84.0075 116.173 84.1354C115.799 84.2585 115.496 84.4455 115.264 84.6964C115.036 84.9427 114.923 85.2788 114.923 85.705C114.923 86.2874 115.138 86.7277 115.569 87.026C116.005 87.3196 116.556 87.4663 117.224 87.4663Z" fill="black"/>
<path d="M129.147 88.9436C128.238 88.9436 127.435 88.714 126.739 88.2547C126.043 87.7907 125.499 87.1373 125.106 86.2945C124.713 85.4469 124.516 84.4455 124.516 83.2902C124.516 82.1444 124.713 81.1501 125.106 80.3073C125.499 79.4644 126.046 78.8134 126.746 78.3541C127.447 77.8948 128.257 77.6652 129.175 77.6652C129.886 77.6652 130.447 77.7836 130.859 78.0203C131.275 78.2523 131.592 78.5175 131.81 78.8158C132.033 79.1093 132.206 79.3508 132.329 79.5402H132.471V74.1709H134.147V88.7163H132.528V87.0402H132.329C132.206 87.2391 132.03 87.49 131.803 87.793C131.576 88.0913 131.252 88.3589 130.83 88.5956C130.409 88.8276 129.848 88.9436 129.147 88.9436ZM129.374 87.4379C130.047 87.4379 130.615 87.2627 131.079 86.9124C131.543 86.5572 131.895 86.0672 132.137 85.4422C132.378 84.8125 132.499 84.0857 132.499 83.2618C132.499 82.4474 132.381 81.7348 132.144 81.124C131.907 80.5085 131.557 80.0303 131.093 79.6894C130.629 79.3437 130.056 79.1709 129.374 79.1709C128.664 79.1709 128.072 79.3532 127.599 79.7178C127.13 80.0776 126.777 80.5677 126.54 81.1879C126.308 81.8035 126.192 82.4947 126.192 83.2618C126.192 84.0383 126.311 84.7438 126.547 85.3783C126.789 86.008 127.144 86.5099 127.613 86.8839C128.086 87.2533 128.673 87.4379 129.374 87.4379Z" fill="black"/>
<path d="M140.66 88.972C139.968 88.972 139.341 88.8418 138.778 88.5814C138.214 88.3162 137.767 87.9351 137.435 87.4379C137.104 86.936 136.938 86.33 136.938 85.6198C136.938 84.9948 137.061 84.4881 137.307 84.0999C137.554 83.7069 137.883 83.3991 138.295 83.1766C138.707 82.954 139.161 82.7883 139.658 82.6794C140.16 82.5658 140.664 82.4758 141.171 82.4095C141.834 82.3243 142.371 82.2604 142.783 82.2178C143.2 82.1704 143.503 82.0923 143.692 81.9834C143.886 81.8745 143.984 81.6851 143.984 81.4152V81.3584C143.984 80.6576 143.792 80.1131 143.408 79.7249C143.029 79.3366 142.454 79.1425 141.682 79.1425C140.882 79.1425 140.255 79.3177 139.8 79.668C139.346 80.0184 139.026 80.3925 138.841 80.7902L137.251 80.222C137.535 79.5591 137.913 79.043 138.387 78.6737C138.865 78.2997 139.386 78.0393 139.949 77.8925C140.518 77.741 141.076 77.6652 141.626 77.6652C141.976 77.6652 142.378 77.7078 142.833 77.793C143.292 77.8735 143.735 78.0416 144.161 78.2973C144.592 78.553 144.949 78.9389 145.234 79.455C145.518 79.9711 145.66 80.6624 145.66 81.5288V88.7163H143.984V87.2391H143.898C143.785 87.4758 143.595 87.7291 143.33 87.999C143.065 88.2689 142.712 88.4985 142.272 88.6879C141.832 88.8773 141.294 88.972 140.66 88.972ZM140.915 87.4663C141.578 87.4663 142.137 87.3361 142.591 87.0757C143.051 86.8153 143.396 86.4791 143.628 86.0672C143.865 85.6553 143.984 85.222 143.984 84.7675V83.2334C143.913 83.3186 143.756 83.3967 143.515 83.4678C143.278 83.534 143.003 83.5932 142.691 83.6453C142.383 83.6927 142.083 83.7353 141.789 83.7732C141.5 83.8063 141.266 83.8347 141.086 83.8584C140.65 83.9152 140.243 84.0075 139.864 84.1354C139.49 84.2585 139.187 84.4455 138.955 84.6964C138.728 84.9427 138.614 85.2788 138.614 85.705C138.614 86.2874 138.83 86.7277 139.261 87.026C139.696 87.3196 140.248 87.4663 140.915 87.4663Z" fill="black"/>
<path d="M150.395 82.1538V88.7163H148.719V77.8073H150.338V79.5118H150.48C150.736 78.9578 151.124 78.5127 151.645 78.1766C152.166 77.8357 152.838 77.6652 153.662 77.6652C154.401 77.6652 155.047 77.8167 155.601 78.1198C156.155 78.418 156.586 78.8726 156.894 79.4834C157.201 80.0894 157.355 80.8565 157.355 81.7845V88.7163H155.679V81.8982C155.679 81.0411 155.457 80.3735 155.012 79.8953C154.567 79.4124 153.956 79.1709 153.179 79.1709C152.644 79.1709 152.166 79.2869 151.745 79.5189C151.328 79.7509 150.999 80.0894 150.757 80.5345C150.516 80.9796 150.395 81.5194 150.395 82.1538Z" fill="black"/>
<path d="M164.85 88.9436C163.865 88.9436 163.001 88.7092 162.258 88.2405C161.519 87.7717 160.941 87.116 160.525 86.2732C160.113 85.4304 159.907 84.4455 159.907 83.3186C159.907 82.1822 160.113 81.1903 160.525 80.3428C160.941 79.4952 161.519 78.8371 162.258 78.3683C163.001 77.8996 163.865 77.6652 164.85 77.6652C165.835 77.6652 166.697 77.8996 167.435 78.3683C168.179 78.8371 168.756 79.4952 169.168 80.3428C169.585 81.1903 169.793 82.1822 169.793 83.3186C169.793 84.4455 169.585 85.4304 169.168 86.2732C168.756 87.116 168.179 87.7717 167.435 88.2405C166.697 88.7092 165.835 88.9436 164.85 88.9436ZM164.85 87.4379C165.598 87.4379 166.214 87.2462 166.697 86.8626C167.18 86.4791 167.537 85.9749 167.769 85.3499C168.001 84.7249 168.117 84.0478 168.117 83.3186C168.117 82.5894 168.001 81.91 167.769 81.2803C167.537 80.6505 167.18 80.1415 166.697 79.7533C166.214 79.365 165.598 79.1709 164.85 79.1709C164.102 79.1709 163.486 79.365 163.003 79.7533C162.52 80.1415 162.163 80.6505 161.931 81.2803C161.699 81.91 161.583 82.5894 161.583 83.3186C161.583 84.0478 161.699 84.7249 161.931 85.3499C162.163 85.9749 162.52 86.4791 163.003 86.8626C163.486 87.2462 164.102 87.4379 164.85 87.4379Z" fill="black"/>
<path d="M178.204 88.7163V74.1709H179.965V87.1538H186.727V88.7163H178.204Z" fill="black"/>
<path d="M193.801 88.9436C192.75 88.9436 191.843 88.7116 191.08 88.2476C190.323 87.7788 189.738 87.1254 189.326 86.2874C188.919 85.4446 188.715 84.4644 188.715 83.347C188.715 82.2296 188.919 81.2448 189.326 80.3925C189.738 79.5355 190.311 78.8679 191.045 78.3896C191.784 77.9067 192.645 77.6652 193.63 77.6652C194.198 77.6652 194.759 77.7599 195.313 77.9493C195.867 78.1387 196.372 78.4465 196.826 78.8726C197.281 79.294 197.643 79.8527 197.913 80.5487C198.183 81.2448 198.318 82.1018 198.318 83.1198V83.83H189.909V82.3811H196.613C196.613 81.7656 196.49 81.2163 196.244 80.7334C196.002 80.2504 195.657 79.8693 195.207 79.5899C194.762 79.3106 194.236 79.1709 193.63 79.1709C192.963 79.1709 192.385 79.3366 191.897 79.668C191.414 79.9947 191.043 80.4209 190.782 80.9464C190.522 81.472 190.392 82.0355 190.392 82.6368V83.6027C190.392 84.4266 190.534 85.125 190.818 85.6979C191.107 86.2661 191.507 86.6993 192.018 86.9976C192.529 87.2911 193.124 87.4379 193.801 87.4379C194.241 87.4379 194.639 87.3764 194.994 87.2533C195.354 87.1254 195.664 86.936 195.924 86.6851C196.185 86.4294 196.386 86.1122 196.528 85.7334L198.147 86.1879C197.977 86.7372 197.69 87.2201 197.288 87.6368C196.885 88.0487 196.388 88.3707 195.796 88.6027C195.205 88.83 194.539 88.9436 193.801 88.9436Z" fill="black"/>
<path d="M205.271 93.0345C204.461 93.0345 203.765 92.9304 203.183 92.722C202.6 92.5184 202.115 92.2485 201.727 91.9124C201.343 91.5809 201.038 91.2258 200.811 90.847L202.146 89.9095C202.297 90.1084 202.489 90.3357 202.721 90.5913C202.953 90.8518 203.27 91.0767 203.673 91.2661C204.08 91.4602 204.613 91.5573 205.271 91.5573C206.152 91.5573 206.878 91.3442 207.451 90.918C208.024 90.4919 208.311 89.8243 208.311 88.9152V86.6993H208.169C208.045 86.8982 207.87 87.1444 207.643 87.4379C207.42 87.7268 207.098 87.9848 206.677 88.2121C206.26 88.4346 205.697 88.5459 204.987 88.5459C204.106 88.5459 203.315 88.3375 202.615 87.9209C201.919 87.5042 201.367 86.8982 200.96 86.1027C200.557 85.3072 200.356 84.3413 200.356 83.205C200.356 82.0876 200.553 81.1145 200.946 80.2859C201.339 79.4526 201.885 78.8087 202.586 78.3541C203.287 77.8948 204.097 77.6652 205.015 77.6652C205.725 77.6652 206.289 77.7836 206.705 78.0203C207.127 78.2523 207.449 78.5175 207.671 78.8158C207.899 79.1093 208.074 79.3508 208.197 79.5402H208.367V77.8073H209.987V89.0288C209.987 89.9663 209.774 90.7287 209.348 91.3158C208.926 91.9076 208.358 92.3409 207.643 92.6155C206.933 92.8948 206.142 93.0345 205.271 93.0345ZM205.214 87.0402C205.886 87.0402 206.455 86.8863 206.919 86.5786C207.383 86.2708 207.735 85.8281 207.977 85.2504C208.218 84.6728 208.339 83.9815 208.339 83.1766C208.339 82.3906 208.221 81.6969 207.984 81.0956C207.747 80.4943 207.397 80.0232 206.933 79.6823C206.469 79.3413 205.896 79.1709 205.214 79.1709C204.504 79.1709 203.912 79.3508 203.438 79.7107C202.97 80.0705 202.617 80.5535 202.38 81.1595C202.148 81.7656 202.032 82.4379 202.032 83.1766C202.032 83.9341 202.151 84.6041 202.387 85.1865C202.629 85.7642 202.984 86.2187 203.453 86.5501C203.926 86.8769 204.513 87.0402 205.214 87.0402Z" fill="black"/>
<path d="M216.265 88.972C215.574 88.972 214.946 88.8418 214.383 88.5814C213.82 88.3162 213.372 87.9351 213.041 87.4379C212.709 86.936 212.544 86.33 212.544 85.6198C212.544 84.9948 212.667 84.4881 212.913 84.0999C213.159 83.7069 213.488 83.3991 213.9 83.1766C214.312 82.954 214.767 82.7883 215.264 82.6794C215.766 82.5658 216.27 82.4758 216.777 82.4095C217.439 82.3243 217.977 82.2604 218.389 82.2178C218.805 82.1704 219.108 82.0923 219.298 81.9834C219.492 81.8745 219.589 81.6851 219.589 81.4152V81.3584C219.589 80.6576 219.397 80.1131 219.014 79.7249C218.635 79.3366 218.06 79.1425 217.288 79.1425C216.488 79.1425 215.86 79.3177 215.406 79.668C214.951 80.0184 214.632 80.3925 214.447 80.7902L212.856 80.222C213.14 79.5591 213.519 79.043 213.992 78.6737C214.471 78.2997 214.991 78.0393 215.555 77.8925C216.123 77.741 216.682 77.6652 217.231 77.6652C217.581 77.6652 217.984 77.7078 218.438 77.793C218.898 77.8735 219.34 78.0416 219.767 78.2973C220.197 78.553 220.555 78.9389 220.839 79.455C221.123 79.9711 221.265 80.6624 221.265 81.5288V88.7163H219.589V87.2391H219.504C219.39 87.4758 219.201 87.7291 218.936 87.999C218.67 88.2689 218.318 88.4985 217.877 88.6879C217.437 88.8773 216.9 88.972 216.265 88.972ZM216.521 87.4663C217.184 87.4663 217.742 87.3361 218.197 87.0757C218.656 86.8153 219.002 86.4791 219.234 86.0672C219.471 85.6553 219.589 85.222 219.589 84.7675V83.2334C219.518 83.3186 219.362 83.3967 219.12 83.4678C218.884 83.534 218.609 83.5932 218.296 83.6453C217.989 83.6927 217.688 83.7353 217.394 83.7732C217.106 83.8063 216.871 83.8347 216.691 83.8584C216.256 83.9152 215.848 84.0075 215.47 84.1354C215.096 84.2585 214.793 84.4455 214.561 84.6964C214.333 84.9427 214.22 85.2788 214.22 85.705C214.22 86.2874 214.435 86.7277 214.866 87.026C215.302 87.3196 215.853 87.4663 216.521 87.4663Z" fill="black"/>
<path d="M226.001 74.1709V88.7163H224.324V74.1709H226.001Z" fill="black"/>
<path d="M76.6379 97.2163H76.0214C75.985 97.039 75.9212 96.8832 75.83 96.749C75.7405 96.6148 75.6312 96.5021 75.5019 96.4109C75.3743 96.3181 75.2326 96.2485 75.0768 96.2021C74.921 96.1557 74.7586 96.1325 74.5896 96.1325C74.2814 96.1325 74.0021 96.2104 73.7519 96.3662C73.5033 96.522 73.3053 96.7515 73.1578 97.0548C73.012 97.358 72.939 97.7301 72.939 98.1709C72.939 98.6117 73.012 98.9837 73.1578 99.287C73.3053 99.5903 73.5033 99.8198 73.7519 99.9756C74.0021 100.131 74.2814 100.209 74.5896 100.209C74.7586 100.209 74.921 100.186 75.0768 100.14C75.2326 100.093 75.3743 100.024 75.5019 99.9333C75.6312 99.8405 75.7405 99.727 75.83 99.5928C75.9212 99.4569 75.985 99.3011 76.0214 99.1254H76.6379C76.5915 99.3856 76.507 99.6184 76.3844 99.8239C76.2617 100.029 76.1093 100.204 75.927 100.348C75.7447 100.491 75.54 100.6 75.313 100.674C75.0876 100.749 74.8465 100.786 74.5896 100.786C74.1554 100.786 73.7693 100.68 73.4312 100.468C73.0932 100.256 72.8272 99.954 72.6333 99.5629C72.4394 99.1718 72.3424 98.7078 72.3424 98.1709C72.3424 97.634 72.4394 97.1699 72.6333 96.7788C72.8272 96.3877 73.0932 96.0861 73.4312 95.874C73.7693 95.6619 74.1554 95.5558 74.5896 95.5558C74.8465 95.5558 75.0876 95.5931 75.313 95.6677C75.54 95.7423 75.7447 95.8516 75.927 95.9958C76.1093 96.1383 76.2617 96.3123 76.3844 96.5178C76.507 96.7217 76.5915 96.9545 76.6379 97.2163Z" fill="black"/>
<path d="M78.6781 100.806C78.4362 100.806 78.2166 100.76 78.0194 100.669C77.8222 100.576 77.6656 100.443 77.5496 100.269C77.4336 100.093 77.3756 99.8811 77.3756 99.6325C77.3756 99.4138 77.4186 99.2365 77.5048 99.1006C77.591 98.963 77.7062 98.8553 77.8503 98.7774C77.9945 98.6995 78.1536 98.6415 78.3276 98.6034C78.5033 98.5636 78.6798 98.5322 78.8571 98.5089C79.0891 98.4791 79.2772 98.4567 79.4214 98.4418C79.5672 98.4253 79.6733 98.3979 79.7396 98.3598C79.8075 98.3217 79.8415 98.2554 79.8415 98.1609V98.1411C79.8415 97.8958 79.7744 97.7052 79.6401 97.5693C79.5075 97.4334 79.3062 97.3655 79.0361 97.3655C78.756 97.3655 78.5364 97.4268 78.3773 97.5494C78.2183 97.6721 78.1064 97.803 78.0418 97.9422L77.4849 97.7433C77.5844 97.5113 77.7169 97.3307 77.8827 97.2014C78.05 97.0705 78.2323 96.9794 78.4295 96.928C78.6284 96.875 78.824 96.8484 79.0162 96.8484C79.1388 96.8484 79.2797 96.8634 79.4388 96.8932C79.5995 96.9214 79.7545 96.9802 79.9036 97.0697C80.0544 97.1592 80.1795 97.2942 80.279 97.4749C80.3784 97.6555 80.4281 97.8974 80.4281 98.2007V100.716H79.8415V100.199H79.8116C79.7719 100.282 79.7056 100.371 79.6128 100.465C79.52 100.56 79.3965 100.64 79.2424 100.706C79.0883 100.773 78.9002 100.806 78.6781 100.806ZM78.7676 100.279C78.9996 100.279 79.1952 100.233 79.3543 100.142C79.515 100.051 79.636 99.9333 79.7172 99.7891C79.8 99.645 79.8415 99.4933 79.8415 99.3342V98.7973C79.8166 98.8271 79.7619 98.8545 79.6774 98.8793C79.5945 98.9025 79.4984 98.9233 79.3891 98.9415C79.2813 98.9581 79.1761 98.973 79.0734 98.9862C78.9723 98.9978 78.8902 99.0078 78.8273 99.0161C78.6748 99.0359 78.5323 99.0683 78.3997 99.113C78.2688 99.1561 78.1627 99.2215 78.0815 99.3094C78.002 99.3956 77.9622 99.5132 77.9622 99.6624C77.9622 99.8662 78.0376 100.02 78.1884 100.125C78.3409 100.227 78.5339 100.279 78.7676 100.279Z" fill="black"/>
<path d="M82.0855 98.4195V100.716H81.4989V96.8982H82.0656V97.4948H82.1154C82.2048 97.3009 82.3407 97.1451 82.523 97.0274C82.7053 96.9081 82.9406 96.8484 83.229 96.8484C83.4875 96.8484 83.7137 96.9015 83.9076 97.0075C84.1015 97.1119 84.2523 97.271 84.36 97.4848C84.4677 97.6969 84.5216 97.9654 84.5216 98.2902V100.716H83.935V98.33C83.935 98.03 83.8571 97.7964 83.7013 97.629C83.5455 97.4599 83.3317 97.3754 83.06 97.3754C82.8727 97.3754 82.7053 97.416 82.5578 97.4972C82.412 97.5784 82.2968 97.6969 82.2123 97.8527C82.1278 98.0085 82.0855 98.1974 82.0855 98.4195Z" fill="black"/>
<path d="M87.1447 100.796C86.7868 100.796 86.4785 100.711 86.22 100.542C85.9615 100.373 85.7626 100.14 85.6234 99.8438C85.4842 99.5472 85.4146 99.2083 85.4146 98.8271C85.4146 98.4393 85.4859 98.0971 85.6284 97.8005C85.7726 97.5022 85.9731 97.2694 86.23 97.102C86.4885 96.933 86.7901 96.8484 87.1348 96.8484C87.4033 96.8484 87.6452 96.8982 87.8606 96.9976C88.0761 97.097 88.2526 97.2362 88.3901 97.4152C88.5277 97.5942 88.613 97.803 88.6462 98.0416H88.0595C88.0148 97.8676 87.9153 97.7135 87.7612 97.5793C87.6088 97.4434 87.4033 97.3754 87.1447 97.3754C86.916 97.3754 86.7155 97.4351 86.5432 97.5544C86.3725 97.6721 86.2391 97.8386 86.143 98.0541C86.0485 98.2678 86.0013 98.5189 86.0013 98.8073C86.0013 99.1022 86.0477 99.3591 86.1405 99.5778C86.2349 99.7966 86.3675 99.9665 86.5382 100.087C86.7106 100.208 86.9127 100.269 87.1447 100.269C87.2972 100.269 87.4356 100.242 87.5599 100.189C87.6842 100.136 87.7894 100.06 87.8756 99.9607C87.9617 99.8612 88.0231 99.7419 88.0595 99.6027H88.6462C88.613 99.8281 88.531 100.031 88.4001 100.212C88.2708 100.391 88.0993 100.533 87.8855 100.639C87.6734 100.744 87.4265 100.796 87.1447 100.796Z" fill="black"/>
<path d="M91.91 99.1553V96.8982H92.4967V100.716H91.91V100.07H91.8702C91.7808 100.264 91.6415 100.429 91.4526 100.565C91.2637 100.699 91.0251 100.766 90.7367 100.766C90.4981 100.766 90.286 100.714 90.1003 100.609C89.9147 100.503 89.7689 100.344 89.6628 100.132C89.5568 99.9184 89.5038 99.6491 89.5038 99.3243V96.8982H90.0904V99.2845C90.0904 99.5629 90.1683 99.785 90.3241 99.9507C90.4815 100.116 90.682 100.199 90.9256 100.199C91.0715 100.199 91.2198 100.162 91.3706 100.087C91.5231 100.013 91.6507 99.8985 91.7534 99.7444C91.8578 99.5903 91.91 99.3939 91.91 99.1553Z" fill="black"/>
<path d="M94.1578 98.4195V100.716H93.5711V96.8982H94.1379V97.4948H94.1876C94.2771 97.3009 94.413 97.1451 94.5953 97.0274C94.7776 96.9081 95.0129 96.8484 95.3013 96.8484C95.5598 96.8484 95.786 96.9015 95.9799 97.0075C96.1738 97.1119 96.3246 97.271 96.4323 97.4848C96.54 97.6969 96.5939 97.9654 96.5939 98.2902V100.716H96.0072V98.33C96.0072 98.03 95.9293 97.7964 95.7736 97.629C95.6178 97.4599 95.404 97.3754 95.1322 97.3754C94.945 97.3754 94.7776 97.416 94.6301 97.4972C94.4843 97.5784 94.3691 97.6969 94.2846 97.8527C94.2001 98.0085 94.1578 98.1974 94.1578 98.4195Z" fill="black"/>
<path d="M101.564 99.1254H102.24L102.806 99.8712L102.956 100.07L103.801 101.194H103.125L102.568 100.448L102.429 100.259L101.564 99.1254ZM104.01 98.1709C104.01 98.7078 103.913 99.1718 103.719 99.5629C103.525 99.954 103.259 100.256 102.921 100.468C102.583 100.68 102.197 100.786 101.762 100.786C101.328 100.786 100.942 100.68 100.604 100.468C100.266 100.256 100 99.954 99.8061 99.5629C99.6122 99.1718 99.5153 98.7078 99.5153 98.1709C99.5153 97.634 99.6122 97.1699 99.8061 96.7788C100 96.3877 100.266 96.0861 100.604 95.874C100.942 95.6619 101.328 95.5558 101.762 95.5558C102.197 95.5558 102.583 95.6619 102.921 95.874C103.259 96.0861 103.525 96.3877 103.719 96.7788C103.913 97.1699 104.01 97.634 104.01 98.1709ZM103.413 98.1709C103.413 97.7301 103.339 97.358 103.192 97.0548C103.046 96.7515 102.848 96.522 102.598 96.3662C102.349 96.2104 102.071 96.1325 101.762 96.1325C101.454 96.1325 101.175 96.2104 100.925 96.3662C100.676 96.522 100.478 96.7515 100.331 97.0548C100.185 97.358 100.112 97.7301 100.112 98.1709C100.112 98.6117 100.185 98.9837 100.331 99.287C100.478 99.5903 100.676 99.8198 100.925 99.9756C101.175 100.131 101.454 100.209 101.762 100.209C102.071 100.209 102.349 100.131 102.598 99.9756C102.848 99.8198 103.046 99.5903 103.192 99.287C103.339 98.9837 103.413 98.6117 103.413 98.1709Z" fill="black"/>
<path d="M107.373 99.1553V96.8982H107.96V100.716H107.373V100.07H107.333C107.244 100.264 107.104 100.429 106.916 100.565C106.727 100.699 106.488 100.766 106.2 100.766C105.961 100.766 105.749 100.714 105.563 100.609C105.378 100.503 105.232 100.344 105.126 100.132C105.02 99.9184 104.967 99.6491 104.967 99.3243V96.8982H105.553V99.2845C105.553 99.5629 105.631 99.785 105.787 99.9507C105.944 100.116 106.145 100.199 106.389 100.199C106.534 100.199 106.683 100.162 106.833 100.087C106.986 100.013 107.114 99.8985 107.216 99.7444C107.321 99.5903 107.373 99.3939 107.373 99.1553Z" fill="black"/>
<path d="M109.034 100.716V96.8982H109.621V100.716H109.034ZM109.332 96.2618C109.218 96.2618 109.119 96.2228 109.037 96.145C108.955 96.0671 108.915 95.9734 108.915 95.8641C108.915 95.7547 108.955 95.6611 109.037 95.5832C109.119 95.5053 109.218 95.4663 109.332 95.4663C109.447 95.4663 109.544 95.5053 109.626 95.5832C109.709 95.6611 109.75 95.7547 109.75 95.8641C109.75 95.9734 109.709 96.0671 109.626 96.145C109.544 96.2228 109.447 96.2618 109.332 96.2618Z" fill="black"/>
<path d="M111.282 98.4195V100.716H110.695V96.8982H111.262V97.4948H111.312C111.401 97.3009 111.537 97.1451 111.719 97.0274C111.902 96.9081 112.137 96.8484 112.425 96.8484C112.684 96.8484 112.91 96.9015 113.104 97.0075C113.298 97.1119 113.449 97.271 113.556 97.4848C113.664 97.6969 113.718 97.9654 113.718 98.2902V100.716H113.131V98.33C113.131 98.03 113.053 97.7964 112.898 97.629C112.742 97.4599 112.528 97.3754 112.256 97.3754C112.069 97.3754 111.902 97.416 111.754 97.4972C111.608 97.5784 111.493 97.6969 111.409 97.8527C111.324 98.0085 111.282 98.1974 111.282 98.4195Z" fill="black"/>
<path d="M115.913 100.806C115.672 100.806 115.452 100.76 115.255 100.669C115.058 100.576 114.901 100.443 114.785 100.269C114.669 100.093 114.611 99.8811 114.611 99.6325C114.611 99.4138 114.654 99.2365 114.74 99.1006C114.826 98.963 114.942 98.8553 115.086 98.7774C115.23 98.6995 115.389 98.6415 115.563 98.6034C115.739 98.5636 115.915 98.5322 116.092 98.5089C116.324 98.4791 116.513 98.4567 116.657 98.4418C116.803 98.4253 116.909 98.3979 116.975 98.3598C117.043 98.3217 117.077 98.2554 117.077 98.1609V98.1411C117.077 97.8958 117.01 97.7052 116.875 97.5693C116.743 97.4334 116.542 97.3655 116.271 97.3655C115.991 97.3655 115.772 97.4268 115.613 97.5494C115.454 97.6721 115.342 97.803 115.277 97.9422L114.72 97.7433C114.82 97.5113 114.952 97.3307 115.118 97.2014C115.285 97.0705 115.468 96.9794 115.665 96.928C115.864 96.875 116.059 96.8484 116.252 96.8484C116.374 96.8484 116.515 96.8634 116.674 96.8932C116.835 96.9214 116.99 96.9802 117.139 97.0697C117.29 97.1592 117.415 97.2942 117.514 97.4749C117.614 97.6555 117.663 97.8974 117.663 98.2007V100.716H117.077V100.199H117.047C117.007 100.282 116.941 100.371 116.848 100.465C116.755 100.56 116.632 100.64 116.478 100.706C116.324 100.773 116.136 100.806 115.913 100.806ZM116.003 100.279C116.235 100.279 116.431 100.233 116.59 100.142C116.75 100.051 116.871 99.9333 116.953 99.7891C117.035 99.645 117.077 99.4933 117.077 99.3342V98.7973C117.052 98.8271 116.997 98.8545 116.913 98.8793C116.83 98.9025 116.734 98.9233 116.624 98.9415C116.517 98.9581 116.411 98.973 116.309 98.9862C116.208 98.9978 116.126 99.0078 116.063 99.0161C115.91 99.0359 115.768 99.0683 115.635 99.113C115.504 99.1561 115.398 99.2215 115.317 99.3094C115.237 99.3956 115.198 99.5132 115.198 99.6624C115.198 99.8662 115.273 100.02 115.424 100.125C115.576 100.227 115.769 100.279 116.003 100.279Z" fill="black"/>
<path d="M120.395 96.8982V97.3953H118.416V96.8982H120.395ZM118.993 95.9834H119.579V99.6226C119.579 99.7883 119.603 99.9126 119.651 99.9955C119.701 100.077 119.764 100.131 119.84 100.16C119.918 100.186 120 100.199 120.087 100.199C120.151 100.199 120.204 100.196 120.246 100.189C120.287 100.181 120.32 100.174 120.345 100.169L120.464 100.696C120.425 100.711 120.369 100.726 120.298 100.741C120.227 100.758 120.136 100.766 120.027 100.766C119.861 100.766 119.699 100.73 119.54 100.659C119.382 100.588 119.251 100.479 119.147 100.334C119.044 100.188 118.993 100.004 118.993 99.7817V95.9834Z" fill="black"/>
<path d="M122.401 100.806C122.159 100.806 121.939 100.76 121.742 100.669C121.545 100.576 121.388 100.443 121.272 100.269C121.156 100.093 121.098 99.8811 121.098 99.6325C121.098 99.4138 121.141 99.2365 121.227 99.1006C121.314 98.963 121.429 98.8553 121.573 98.7774C121.717 98.6995 121.876 98.6415 122.05 98.6034C122.226 98.5636 122.402 98.5322 122.58 98.5089C122.812 98.4791 123 98.4567 123.144 98.4418C123.29 98.4253 123.396 98.3979 123.462 98.3598C123.53 98.3217 123.564 98.2554 123.564 98.1609V98.1411C123.564 97.8958 123.497 97.7052 123.363 97.5693C123.23 97.4334 123.029 97.3655 122.759 97.3655C122.479 97.3655 122.259 97.4268 122.1 97.5494C121.941 97.6721 121.829 97.803 121.764 97.9422L121.208 97.7433C121.307 97.5113 121.44 97.3307 121.605 97.2014C121.773 97.0705 121.955 96.9794 122.152 96.928C122.351 96.875 122.547 96.8484 122.739 96.8484C122.861 96.8484 123.002 96.8634 123.161 96.8932C123.322 96.9214 123.477 96.9802 123.626 97.0697C123.777 97.1592 123.902 97.2942 124.002 97.4749C124.101 97.6555 124.151 97.8974 124.151 98.2007V100.716H123.564V100.199H123.534C123.495 100.282 123.428 100.371 123.335 100.465C123.243 100.56 123.119 100.64 122.965 100.706C122.811 100.773 122.623 100.806 122.401 100.806ZM122.49 100.279C122.722 100.279 122.918 100.233 123.077 100.142C123.238 100.051 123.359 99.9333 123.44 99.7891C123.523 99.645 123.564 99.4933 123.564 99.3342V98.7973C123.539 98.8271 123.485 98.8545 123.4 98.8793C123.317 98.9025 123.221 98.9233 123.112 98.9415C123.004 98.9581 122.899 98.973 122.796 98.9862C122.695 98.9978 122.613 99.0078 122.55 99.0161C122.397 99.0359 122.255 99.0683 122.122 99.113C121.991 99.1561 121.885 99.2215 121.804 99.3094C121.725 99.3956 121.685 99.5132 121.685 99.6624C121.685 99.8662 121.76 100.02 121.911 100.125C122.064 100.227 122.257 100.279 122.49 100.279Z" fill="black"/>
<path d="M125.808 98.4195V100.716H125.222V96.8982H125.788V97.4948H125.838C125.928 97.3009 126.063 97.1451 126.246 97.0274C126.428 96.9081 126.663 96.8484 126.952 96.8484C127.21 96.8484 127.436 96.9015 127.63 97.0075C127.824 97.1119 127.975 97.271 128.083 97.4848C128.19 97.6969 128.244 97.9654 128.244 98.2902V100.716H127.658V98.33C127.658 98.03 127.58 97.7964 127.424 97.629C127.268 97.4599 127.054 97.3754 126.783 97.3754C126.595 97.3754 126.428 97.416 126.28 97.4972C126.135 97.5784 126.019 97.6969 125.935 97.8527C125.85 98.0085 125.808 98.1974 125.808 98.4195Z" fill="black"/>
<path d="M130.44 100.806C130.198 100.806 129.978 100.76 129.781 100.669C129.584 100.576 129.427 100.443 129.311 100.269C129.195 100.093 129.137 99.8811 129.137 99.6325C129.137 99.4138 129.18 99.2365 129.267 99.1006C129.353 98.963 129.468 98.8553 129.612 98.7774C129.756 98.6995 129.915 98.6415 130.089 98.6034C130.265 98.5636 130.442 98.5322 130.619 98.5089C130.851 98.4791 131.039 98.4567 131.183 98.4418C131.329 98.4253 131.435 98.3979 131.501 98.3598C131.569 98.3217 131.603 98.2554 131.603 98.1609V98.1411C131.603 97.8958 131.536 97.7052 131.402 97.5693C131.269 97.4334 131.068 97.3655 130.798 97.3655C130.518 97.3655 130.298 97.4268 130.139 97.5494C129.98 97.6721 129.868 97.803 129.803 97.9422L129.247 97.7433C129.346 97.5113 129.479 97.3307 129.644 97.2014C129.812 97.0705 129.994 96.9794 130.191 96.928C130.39 96.875 130.586 96.8484 130.778 96.8484C130.901 96.8484 131.041 96.8634 131.2 96.8932C131.361 96.9214 131.516 96.9802 131.665 97.0697C131.816 97.1592 131.941 97.2942 132.041 97.4749C132.14 97.6555 132.19 97.8974 132.19 98.2007V100.716H131.603V100.199H131.573C131.534 100.282 131.467 100.371 131.374 100.465C131.282 100.56 131.158 100.64 131.004 100.706C130.85 100.773 130.662 100.806 130.44 100.806ZM130.529 100.279C130.761 100.279 130.957 100.233 131.116 100.142C131.277 100.051 131.398 99.9333 131.479 99.7891C131.562 99.645 131.603 99.4933 131.603 99.3342V98.7973C131.578 98.8271 131.524 98.8545 131.439 98.8793C131.356 98.9025 131.26 98.9233 131.151 98.9415C131.043 98.9581 130.938 98.973 130.835 98.9862C130.734 98.9978 130.652 99.0078 130.589 99.0161C130.437 99.0359 130.294 99.0683 130.161 99.113C130.031 99.1561 129.924 99.2215 129.843 99.3094C129.764 99.3956 129.724 99.5132 129.724 99.6624C129.724 99.8662 129.799 100.02 129.95 100.125C130.103 100.227 130.296 100.279 130.529 100.279Z" fill="black"/>
<path d="M135.309 100.716V95.6254H137.029C137.427 95.6254 137.753 95.6934 138.008 95.8293C138.264 95.9635 138.453 96.1483 138.575 96.3836C138.698 96.6189 138.759 96.8866 138.759 97.1865C138.759 97.4865 138.698 97.7524 138.575 97.9845C138.453 98.2165 138.265 98.3988 138.011 98.5313C137.757 98.6622 137.433 98.7277 137.039 98.7277H135.647V98.1709H137.019C137.291 98.1709 137.51 98.1311 137.675 98.0516C137.843 97.972 137.964 97.8593 138.038 97.7135C138.115 97.566 138.153 97.3903 138.153 97.1865C138.153 96.9827 138.115 96.8045 138.038 96.6521C137.962 96.4996 137.84 96.3819 137.673 96.2991C137.506 96.2146 137.284 96.1723 137.009 96.1723H135.925V100.716H135.309ZM137.705 98.4294L138.958 100.716H138.242L137.009 98.4294H137.705Z" fill="black"/>
<path d="M141.217 100.796C140.872 100.796 140.57 100.714 140.31 100.55C140.051 100.386 139.849 100.156 139.703 99.8612C139.559 99.5662 139.487 99.2215 139.487 98.8271C139.487 98.4294 139.559 98.0822 139.703 97.7856C139.849 97.4889 140.051 97.2586 140.31 97.0945C140.57 96.9305 140.872 96.8484 141.217 96.8484C141.562 96.8484 141.863 96.9305 142.122 97.0945C142.382 97.2586 142.584 97.4889 142.728 97.7856C142.874 98.0822 142.947 98.4294 142.947 98.8271C142.947 99.2215 142.874 99.5662 142.728 99.8612C142.584 100.156 142.382 100.386 142.122 100.55C141.863 100.714 141.562 100.796 141.217 100.796ZM141.217 100.269C141.479 100.269 141.694 100.202 141.863 100.068C142.032 99.9333 142.157 99.7568 142.239 99.5381C142.32 99.3193 142.36 99.0823 142.36 98.8271C142.36 98.5719 142.32 98.3341 142.239 98.1137C142.157 97.8933 142.032 97.7152 141.863 97.5793C141.694 97.4434 141.479 97.3754 141.217 97.3754C140.955 97.3754 140.74 97.4434 140.571 97.5793C140.402 97.7152 140.277 97.8933 140.195 98.1137C140.114 98.3341 140.074 98.5719 140.074 98.8271C140.074 99.0823 140.114 99.3193 140.195 99.5381C140.277 99.7568 140.402 99.9333 140.571 100.068C140.74 100.202 140.955 100.269 141.217 100.269Z" fill="black"/>
<path d="M145.394 100.796C145.049 100.796 144.747 100.714 144.486 100.55C144.228 100.386 144.026 100.156 143.88 99.8612C143.736 99.5662 143.664 99.2215 143.664 98.8271C143.664 98.4294 143.736 98.0822 143.88 97.7856C144.026 97.4889 144.228 97.2586 144.486 97.0945C144.747 96.9305 145.049 96.8484 145.394 96.8484C145.738 96.8484 146.04 96.9305 146.299 97.0945C146.559 97.2586 146.761 97.4889 146.905 97.7856C147.051 98.0822 147.124 98.4294 147.124 98.8271C147.124 99.2215 147.051 99.5662 146.905 99.8612C146.761 100.156 146.559 100.386 146.299 100.55C146.04 100.714 145.738 100.796 145.394 100.796ZM145.394 100.269C145.656 100.269 145.871 100.202 146.04 100.068C146.209 99.9333 146.334 99.7568 146.415 99.5381C146.497 99.3193 146.537 99.0823 146.537 98.8271C146.537 98.5719 146.497 98.3341 146.415 98.1137C146.334 97.8933 146.209 97.7152 146.04 97.5793C145.871 97.4434 145.656 97.3754 145.394 97.3754C145.132 97.3754 144.916 97.4434 144.747 97.5793C144.578 97.7152 144.453 97.8933 144.372 98.1137C144.291 98.3341 144.25 98.5719 144.25 98.8271C144.25 99.0823 144.291 99.3193 144.372 99.5381C144.453 99.7568 144.578 99.9333 144.747 100.068C144.916 100.202 145.132 100.269 145.394 100.269Z" fill="black"/>
</svg>
